<?xml version="1.0" encoding="UTF-8"?><svg id="Layer_2" xmlns="http://www.w3.org/2000/svg" viewBox="0 0 435.85 137.78"><defs><style>.cls-1{fill:#1d1d1b;}.cls-2{fill:none;stroke:#1d1d1b;stroke-miterlimit:10;stroke-width:5.86px;}</style></defs><g id="Layer_1-2"><path class="cls-1" d="M93.91.69h11.29l20.55,54.5h.18L146.48.69h11.29v65.6h-8.26V12.34h-.18l-19.82,53.95h-7.34l-19.82-53.95h-.18v53.95h-8.26V.69Z"/><path class="cls-1" d="M175.42,49.87l-5.78,16.42h-8.53L185.33.69h9.27l24.41,65.6h-8.9l-5.78-16.42h-28.9ZM201.66,42.53l-11.65-34.22h-.18l-11.65,34.22h23.49Z"/><path class="cls-1" d="M222.3.69h10.09l32.75,53.86h.18V.69h8.26v65.6h-10.09l-32.76-53.86h-.18v53.86h-8.26V.69Z"/><path class="cls-1" d="M307.05,67.57c-17.52,0-25.14-9.73-25.14-23.12V.69h8.26v43.77c0,10.64,5.51,15.78,16.88,15.78s16.88-5.14,16.88-15.78V.69h8.26v43.77c0,13.4-7.62,23.12-25.14,23.12Z"/><path class="cls-1" d="M346.32,49.87l-5.78,16.42h-8.53L356.23.69h9.27l24.41,65.6h-8.9l-5.78-16.42h-28.9ZM372.56,42.53l-11.65-34.22h-.18l-11.65,34.22h23.49Z"/><path class="cls-1" d="M401.45.69v58.26h34.41v7.34h-42.66V.69h8.26Z"/><path class="cls-1" d="M131.44,99.31v7.34h-29.27v29.64h-8.26v-65.6h44.5v7.34h-36.24v21.29h29.27Z"/><path class="cls-1" d="M137.49,103.44c0-19.73,12.85-34.04,32.11-34.04s32.11,14.31,32.11,34.04-12.85,34.13-32.11,34.13-32.11-14.41-32.11-34.13ZM193.09,103.44c0-14.13-6.97-26.7-23.49-26.7s-23.49,12.57-23.49,26.7,6.97,26.79,23.49,26.79,23.49-12.66,23.49-26.79Z"/><path class="cls-1" d="M235.88,76.74c-15.6,0-21.75,13.49-21.75,26.7s6.15,26.79,21.75,26.79c13.76,0,18.72-9.36,19.27-17.62h8.62c-1.47,14.5-11.74,24.96-27.89,24.96-17.98,0-30.37-14.31-30.37-34.13s12.39-34.04,30.37-34.04c16.06,0,26.33,10.46,27.89,22.94h-8.62c-1.19-6.24-5.6-15.6-19.27-15.6Z"/><path class="cls-1" d="M293.89,137.57c-17.52,0-25.14-9.73-25.14-23.12v-43.77h8.26v43.77c0,10.64,5.51,15.78,16.88,15.78s16.88-5.14,16.88-15.78v-43.77h8.26v43.77c0,13.4-7.62,23.12-25.14,23.12Z"/><path class="cls-1" d="M375.33,118.12c0,10.83-7.06,19.45-23.4,19.45s-27.8-8.62-28.72-23.31h8.62c.92,9.08,6.06,16.06,19.73,16.06,11.84,0,15.14-5.23,15.14-11.93,0-9.17-6.42-10.28-19.18-13.49-9.91-2.48-21.56-5.5-21.56-18.17,0-10.46,8.07-17.34,22.2-17.34,14.86,0,23.95,7.52,25.05,20.74h-8.62c-1.19-8.81-5.78-13.49-16.33-13.49-9.17,0-13.67,3.49-13.67,9.73,0,8.17,7.89,9.82,16.33,11.84,12.75,3.03,24.41,5.96,24.41,19.91Z"/><circle class="cls-2" cx="44.94" cy="44.94" r="42.01"/><circle class="cls-2" cx="44.94" cy="92.84" r="42.01"/></g></svg>